<svg width="194" height="194" viewBox="0 0 194 194" fill="none" xmlns="http://www.w3.org/2000/svg">
<rect width="194" height="194" rx="32" fill="url(#paint0_linear_1582_849)"/>
<g clip-path="url(#clip0_1582_849)">
<path d="M102.689 44.2008C91.9633 44.2008 82.0969 47.0552 73.3591 52.674L72.4687 53.2429L71.8889 52.3746C70.2532 49.9394 68.6899 47.6739 67.168 45.4783L67.1162 45.3985C65.2941 42.7737 63.6894 40.4483 62.3228 38.3525L46.0791 47.9434C47.6009 50.3087 49.3506 52.8237 51.1831 55.4884L51.2555 55.5982C53.3675 58.6421 55.7591 62.0953 58.2127 65.8877L58.5958 66.4765L58.1816 67.0354C57.3534 68.1532 56.5459 69.3109 55.7694 70.4786C47.0212 83.822 42 101.467 42 118.862C42 144.711 52.9224 161.418 69.808 161.418C77.4588 161.418 84.3849 158.074 89.3026 152.006C98.2372 141.008 100.194 122.305 94.6654 100.669C91.984 90.1993 88.0188 80.1294 82.5525 69.8897L82.128 69.1113L82.8631 68.5923C88.6193 64.5803 95.2866 62.5444 102.679 62.5444C109.046 62.5444 129.834 65.9576 129.834 109.92V158.384H148.884V109.92C148.884 47.3646 110.412 44.2008 102.699 44.2008H102.689ZM74.3012 140.689C72.6033 142.765 71.0711 143.054 69.7976 143.054C66.1327 143.054 61.0391 134.651 61.0391 118.862C61.0391 107.984 63.5031 96.7363 68.0066 87.2153L68.9901 85.1095L69.9322 87.2452C72.5412 93.1435 74.6428 99.1416 76.1544 105.07C79.3845 117.685 80.0574 133.603 74.2908 140.689H74.3012Z" fill="#EFECD6"/>
</g>
<defs>
<linearGradient id="paint0_linear_1582_849" x1="14.5751" y1="185" x2="180.025" y2="9.14629" gradientUnits="userSpaceOnUse">
<stop offset="0.509522" stop-color="#2B4244"/>
<stop offset="0.901413" stop-color="#38696D"/>
</linearGradient>
<clipPath id="clip0_1582_849">
<rect width="110" height="137" fill="white" transform="translate(42 29)"/>
</clipPath>
</defs>
</svg>
