<svg width="453" height="303" viewBox="0 0 453 303" fill="none" xmlns="http://www.w3.org/2000/svg">
<g clip-path="url(#clip0_14_38895)">
<path d="M330.459 418.692C301.123 429.567 196.078 462.959 137.236 427.964C78.1548 392.825 33.2614 314.115 73.711 195.571C85.8514 164.669 132.758 89.4655 191.656 84.4851C193.25 84.3503 194.862 84.4583 196.406 84.8784C219.575 91.1851 251.721 123.317 245.962 213.901C238.517 331 195.635 350.141 182.147 349.463C160.705 348.386 143.948 330.811 140.511 302.812C136.982 274.061 101.304 107.217 278.513 78.4974C341.241 73.7011 418.345 100.67 440.626 316.841" stroke="#2C4143" stroke-opacity="0.12" stroke-width="24"/>
</g>
<defs>
<clipPath id="clip0_14_38895">
<rect width="453" height="303" fill="white"/>
</clipPath>
</defs>
</svg>
